<?xml version="1.0" encoding="utf-8"?>
<!-- Generator: Adobe Illustrator 21.0.0, SVG Export Plug-In . SVG Version: 6.00 Build 0)  -->
<svg version="1.1" id="Layer_1" xmlns="http://www.w3.org/2000/svg" xmlns:xlink="http://www.w3.org/1999/xlink" x="0px" y="0px"
	 viewBox="0 0 1280 1024" style="enable-background:new 0 0 1280 1024;" xml:space="preserve">
<style type="text/css">
	.st0{fill:url(#SVGID_1_);stroke:url(#SVGID_2_);stroke-miterlimit:10;}
	.st1{fill:#1D1D28;}
	.st2{fill:none;stroke:#FFFFFF;stroke-width:5;stroke-miterlimit:10;}
	.st3{fill:#FFFFFF;stroke:#FFFFFF;stroke-width:5;stroke-miterlimit:10;}
	.st4{fill:#FFFFFF;}
	.st5{font-family:'MyriadPro-Bold';}
	.st6{font-size:34.4975px;}
	.st7{fill:#FFFFFF;stroke:#FFFFFF;stroke-miterlimit:10;}
	.st8{font-family:'MyriadPro-Regular';}
</style>
<linearGradient id="SVGID_1_" gradientUnits="userSpaceOnUse" x1="1069.358" y1="941.358" x2="210.642" y2="82.642">
	<stop  offset="0" style="stop-color:#FFFFFF"/>
	<stop  offset="0" style="stop-color:#1467BB"/>
	<stop  offset="6.375697e-02" style="stop-color:#1368BC"/>
	<stop  offset="0.226" style="stop-color:#2B48AA"/>
	<stop  offset="0.8793" style="stop-color:#8B52B4"/>
</linearGradient>
<linearGradient id="SVGID_2_" gradientUnits="userSpaceOnUse" x1="206.617" y1="512" x2="1073.3829" y2="512">
	<stop  offset="0" style="stop-color:#CCE0F4"/>
	<stop  offset="7.067814e-02" style="stop-color:#C3DCF2"/>
	<stop  offset="0.1883" style="stop-color:#A9D2EE"/>
	<stop  offset="0.3383" style="stop-color:#80C2E7"/>
	<stop  offset="0.513" style="stop-color:#47ACDE"/>
	<stop  offset="0.6261" style="stop-color:#1E9CD7"/>
	<stop  offset="0.8652" style="stop-color:#0075BE"/>
	<stop  offset="0.9944" style="stop-color:#005B97"/>
</linearGradient>
<path class="st0" d="M1060.9,944.9H219.1c-6.6,0-12-5.4-12-12V91.1c0-6.6,5.4-12,12-12h841.8c6.6,0,12,5.4,12,12v841.8
	C1072.9,939.5,1067.5,944.9,1060.9,944.9z"/>
<circle class="st1" cx="794.2" cy="227.3" r="72.1"/>
<circle class="st1" cx="640" cy="534.2" r="72.1"/>
<circle class="st1" cx="444.1" cy="740.6" r="72.1"/>
<path class="st2" d="M397.8,685.4c-101.3-138.5-79.5-326.5,48.7-420.3c10.1-8.2,24.8-19,43.9-29c10.8-5.6,31.2-15.3,64.8-23.2
	c58.3-13.7,114.4-12.3,143.3-10.4"/>
<polygon class="st3" points="672.4,173.8 663.3,224.9 712.1,207.3 "/>
<text transform="matrix(1 0 0 1 275.7557 408.4988)" class="st4 st5 st6">w2</text>
<text transform="matrix(1 0 0 1 841.6473 554.8992)" class="st7 st8 st6">w1</text>
<circle class="st1" cx="913.7" cy="793.8" r="72.1"/>
<line class="st2" x1="495.8" y1="690.4" x2="590.9" y2="587"/>
<path class="st2" d="M909,721.9c-5.6-111.7-93.7-198-197.1-192.9"/>
<text transform="matrix(1 0 0 1 435.9091 751.3328)" class="st4 st5 st6">x</text>
<text transform="matrix(1 0 0 1 632.5956 545.7869)" class="st4 st5 st6">y</text>
<text transform="matrix(1 0 0 1 786.077 234.7303)" class="st4 st5 st6">z</text>
<text transform="matrix(1 0 0 1 899.9706 803.282)" class="st4 st5 st6">w</text>
</svg>
